<?xml version="1.0" standalone="no"?><!DOCTYPE svg PUBLIC "-//W3C//DTD SVG 1.1//EN" "http://www.w3.org/Graphics/SVG/1.1/DTD/svg11.dtd"><svg t="1771138150162" class="icon" viewBox="0 0 1024 1024" version="1.1" xmlns="http://www.w3.org/2000/svg" p-id="3568" xmlns:xlink="http://www.w3.org/1999/xlink" width="200" height="200"><path d="M559.786667 512l314.026666-314.026667c13.653333-13.653333 13.653333-34.133333 0-47.786666-13.653333-13.653333-34.133333-13.653333-47.786666 0L512 464.213333 197.973333 150.186667c-13.653333-13.653333-34.133333-13.653333-47.786666 0-13.653333 13.653333-13.653333 34.133333 0 47.786666l314.026666 314.026667-314.026666 314.026667c-13.653333 13.653333-13.653333 34.133333 0 47.786666 13.653333 13.653333 34.133333 13.653333 47.786666 0l314.026667-314.026666 314.026667 314.026666c13.653333 13.653333 34.133333 13.653333 47.786666 0 13.653333-13.653333 13.653333-34.133333 0-47.786666L559.786667 512z" p-id="3569" fill="#ffffff"></path></svg>