<?xml version="1.0" standalone="no"?><!DOCTYPE svg PUBLIC "-//W3C//DTD SVG 1.1//EN" "http://www.w3.org/Graphics/SVG/1.1/DTD/svg11.dtd"><svg t="1770532139923" class="icon" viewBox="0 0 1024 1024" version="1.1" xmlns="http://www.w3.org/2000/svg" p-id="16131" xmlns:xlink="http://www.w3.org/1999/xlink" width="200" height="200"><path d="M512 512c-129.6 0-234.666667-105.066667-234.666667-234.666667S382.4 42.666667 512 42.666667s234.666667 105.066667 234.666667 234.666666-105.066667 234.666667-234.666667 234.666667zM256 960C126.4 960 21.333333 854.933333 21.333333 725.333333s105.066667-234.666667 234.666667-234.666666 234.666667 105.066667 234.666667 234.666666-105.066667 234.666667-234.666667 234.666667z m256-533.333333a149.333333 149.333333 0 1 0 0-298.666667 149.333333 149.333333 0 0 0 0 298.666667zM256 874.666667a149.333333 149.333333 0 1 0 0-298.666667 149.333333 149.333333 0 0 0 0 298.666667z m512 85.333333c-129.6 0-234.666667-105.066667-234.666667-234.666667s105.066667-234.666667 234.666667-234.666666 234.666667 105.066667 234.666667 234.666666-105.066667 234.666667-234.666667 234.666667z m0-85.333333a149.333333 149.333333 0 1 0 0-298.666667 149.333333 149.333333 0 0 0 0 298.666667z" fill="#ffffff" p-id="16132"></path></svg>