<?xml version="1.0" standalone="no"?><!DOCTYPE svg PUBLIC "-//W3C//DTD SVG 1.1//EN" "http://www.w3.org/Graphics/SVG/1.1/DTD/svg11.dtd"><svg t="1770380557869" class="icon" viewBox="0 0 1024 1024" version="1.1" xmlns="http://www.w3.org/2000/svg" p-id="14550" xmlns:xlink="http://www.w3.org/1999/xlink" width="200" height="200"><path d="M712 160C629.408 160 557.088 195.52 512 255.552 466.912 195.52 394.592 160 312 160A248.288 248.288 0 0 0 64 408c0 280 415.168 506.624 432.832 516a32 32 0 0 0 30.336 0C544.832 914.624 960 688 960 408A248.288 248.288 0 0 0 712 160zM512 859.2c-73.056-42.56-384-236.448-384-451.2A184.224 184.224 0 0 1 312 224c77.792 0 143.136 41.44 170.4 108a32 32 0 0 0 59.2 0C568.864 265.312 634.208 224 712 224A184.224 184.224 0 0 1 896 408c0 214.432-311.04 408.608-384 451.2z" p-id="14551" fill="#ffffff"></path></svg>