<?xml version="1.0" standalone="no"?><!DOCTYPE svg PUBLIC "-//W3C//DTD SVG 1.1//EN" "http://www.w3.org/Graphics/SVG/1.1/DTD/svg11.dtd"><svg t="1770379918629" class="icon" viewBox="0 0 1024 1024" version="1.1" xmlns="http://www.w3.org/2000/svg" p-id="7474" width="200" height="200" xmlns:xlink="http://www.w3.org/1999/xlink"><path d="M1002.437349 459.841996 619.235686 61.738046C593.688908 36.191268 548.982047 0 512.790779 0c-36.191268 0-59.609148 17.031185-85.155925 42.577963l-404.490644 395.975052c-27.675676 40.449064-23.417879 40.449064-21.288981 61.738046 0 12.773389-4.257796 42.577963 42.577963 42.577963l85.155925 0 0 334.237006c0 72.382536 31.933472 146.893971 106.444906 146.893971l170.31185 0L406.345873 666.345114c0-36.191268 4.257796-42.577963 42.577963-42.577963l127.733888 0c38.320166 0 42.577963 6.386694 42.577963 42.577963L619.235686 1021.871102l170.31185 0c74.511435 0 106.444906-74.511435 106.444906-146.893971L895.992442 562.029106l85.155925 0c31.933472 2.128898 42.577963-29.804574 42.577963-42.577963C1023.72633 489.64657 1017.339636 479.002079 1002.437349 459.841996L1002.437349 459.841996z" p-id="7475" fill="currentColor"></path></svg>